<?xml version="1.0"?><svg width="343.60971" height="295.02386" xmlns="http://www.w3.org/2000/svg" xmlns:xlink="http://www.w3.org/1999/xlink">
 <defs>
  <linearGradient id="linearGradient8136">
   <stop stop-color="#ffb837" id="stop8138" offset="0"/>
   <stop stop-color="#f1c90b" offset="0.771739" id="stop8144"/>
   <stop stop-color="#fff200" id="stop8140" offset="1"/>
  </linearGradient>
  <linearGradient id="linearGradient9142">
   <stop stop-color="#ffe21a" offset="0" id="stop9144"/>
   <stop stop-color="#f2f41c" id="stop9146" offset="0.836956"/>
   <stop stop-color="#92c600" offset="1" id="stop9148"/>
  </linearGradient>
  <radialGradient r="131" fy="648.07648" fx="352.85715" cy="648.07648" cx="352.85715" gradientTransform="matrix(1.0000001,-2.0432183e-7,2.0877812e-7,1.0218102,-1.6336572e-4,-14.134579)" gradientUnits="userSpaceOnUse" id="radialGradient5154" xlink:href="#linearGradient9142"/>
 </defs>
 <metadata id="metadata5108">image/svg+xmlWhiter EggCarlos AsmatdStulleA variation on dStulle original "white egg" featuring a less yellowish egg.eggfoodanimalwhite</metadata>
 <g>
  <title>Layer 1</title>
  <g transform="rotate(89.9467 169.801 156.079)" id="svg_1">
   <path fill="#fcfcfa" fill-rule="evenodd" stroke="#000000" stroke-width="2.818251" stroke-linecap="round" stroke-linejoin="round" stroke-miterlimit="4" stroke-dashoffset="0" id="path2167" d="m275.988953,189.48082c0.630585,58.487579 -38.418396,108.819717 -103.872711,108.819717c-65.454285,0 -109.134338,-33.179565 -108.703979,-113.55101c0.423065,-80.5569 54.546173,-169.168304 103.872711,-170.326557c52.614532,-1.277168 107.761566,86.066044 108.703979,175.05785z"/>
   <path fill="#c6c6ba" fill-opacity="0.25098" fill-rule="evenodd" stroke-width="5" stroke-linecap="round" stroke-linejoin="round" stroke-miterlimit="4" stroke-dashoffset="0" id="path3139" d="m236.867996,76.597c-4.574997,4.323196 2.479004,11.421501 2.876999,16.879402c11.172012,34.974586 15.590012,72.867592 7.968002,109.052605c-8.886002,35.660995 -36.041,67.408005 -71.848007,77.779007c-14.002991,4.348999 -28.781586,5.334991 -43.365082,5.303986c-4.701508,6.187988 8.946289,5.834991 12.622681,7.351013c31.113403,6.048981 66.187408,0.866974 90.443405,-20.775024c22.649002,-20.079987 33.832993,-50.840988 33.203995,-80.735992c0.184021,-35.026993 -8.945984,-69.680992 -23.286987,-101.4674c-2.634003,-4.422195 -4.343994,-10.714493 -8.615005,-13.387596l0,0z"/>
  </g>
 </g>
</svg>